Coordinates
version=1
nRows=13
nColumns=40
inDegrees=yes

Units are S.I. units (second, meters, Newtons, ...)
Angles are in degrees.

endheader
time	pelvis_tilt	pelvis_list	pelvis_rotation	pelvis_tx	pelvis_ty	pelvis_tz	hip_flexion_r	hip_adduction_r	hip_rotation_r	knee_angle_r	knee_angle_r_beta	ankle_angle_r	subtalar_angle_r	mtp_angle_r	hip_flexion_l	hip_adduction_l	hip_rotation_l	knee_angle_l	knee_angle_l_beta	ankle_angle_l	subtalar_angle_l	mtp_angle_l	lumbar_extension	lumbar_bending	lumbar_rotation	arm_flex_r	arm_add_r	arm_rot_r	elbow_flex_r	pro_sup_r	wrist_flex_r	wrist_dev_r	arm_flex_l	arm_add_l	arm_rot_l	elbow_flex_l	pro_sup_l	wrist_flex_l	wrist_dev_l
     26.79000000	     -3.99037612	     -3.75903558	     -0.11549999	      1.09841774	      0.93357408	      0.43241784	     29.45904941	     -7.72056204	     -5.18666159	     69.83848294	     69.83848294	     -0.47330402	    -14.50849961	      0.71644598	     14.26810469	     -3.62660449	    -10.51197265	     20.80698548	     20.80698548	     13.05644030	    -10.19268214	     -0.66044403	     -9.18072986	      6.49479657	      1.39511771	      7.54731593	    -12.75429265	    -14.62031346	     49.43761687	     44.17639490	      0.00000000	      0.00000000	     12.64075483	    -12.05070647	      2.27007379	     35.85685462	     44.29091347	      0.00000000	      0.00000000
     26.80150000	     -3.96147144	     -3.80685581	     -0.21743670	      1.09695323	      0.93426443	      0.43194430	     30.68168208	     -7.57115330	     -5.34182986	     68.30935253	     68.30935253	     -0.34585699	    -14.70273956	      0.63345899	     13.22359661	     -3.62795340	    -10.85444258	     20.04239232	     20.04239232	     13.32804149	     -9.57008359	     -0.84920363	     -9.43026705	      6.62644623	      1.68183545	      5.33350418	    -12.81591732	    -14.62420292	     47.08190102	     44.27789716	      0.00000000	      0.00000000	     14.95326377	    -12.43154063	      2.08241351	     37.25681634	     44.37812276	      0.00000000	      0.00000000
     26.81300000	     -3.90905798	     -3.84805925	     -0.33230924	      1.09552064	      0.93483276	      0.43153338	     31.71733669	     -7.42519668	     -5.53834546	     66.52738723	     66.52738723	     -0.35032452	    -14.82308802	      0.47165834	     12.18827011	     -3.63981403	    -11.25159411	     19.34370501	     19.34370501	     13.60733735	     -8.89167811	     -1.29448217	     -9.69425776	      6.70844334	      1.91180201	      3.70317147	    -12.72828696	    -14.84982617	     43.44338129	     44.45493629	      0.00000000	      0.00000000	     17.20455612	    -12.87729446	      2.09701919	     38.71431551	     44.45721618	      0.00000000	      0.00000000
     26.82450000	     -3.86906667	     -3.93908932	     -0.39832993	      1.09421578	      0.93539862	      0.43112703	     32.53966859	     -7.20730727	     -5.80550394	     64.40033546	     64.40033546	     -0.30513251	    -14.90071909	      0.62289637	     11.10563626	     -3.66040501	    -11.53708330	     18.48508516	     18.48508516	     13.76287029	     -8.30385770	     -1.50790377	     -9.91729854	      6.92180384	      1.96452051	      2.06663256	    -12.64352057	    -15.01619010	     40.44532371	     44.59327848	      0.00000000	      0.00000000	     19.28612116	    -13.29827421	      2.07788541	     40.07730137	     44.52059725	      0.00000000	      0.00000000
     26.83600000	     -3.92883902	     -3.94428827	     -0.47736057	      1.09282133	      0.93549016	      0.43082602	     33.39043218	     -7.08498476	     -6.06196849	     62.09534006	     62.09534006	     -0.27746577	    -14.76496592	      0.69039412	     10.28532444	     -3.65154064	    -11.97984830	     17.89050841	     17.89050841	     13.79159236	     -7.66929021	     -2.50496663	     -9.95199668	      6.95099561	      1.39829804	      2.38227543	    -12.17469450	    -16.17547613	     33.48054506	     45.01835743	      0.00000000	      0.00000000	     20.92718960	    -14.34872663	      2.59860961	     41.70432554	     44.60088409	      0.00000000	      0.00000000
     26.84750000	     -3.83549805	     -3.95889116	     -0.57253983	      1.09161171	      0.93579312	      0.43056946	     33.87683815	     -6.88190815	     -6.29052675	     59.39652700	     59.39652700	     -0.23478065	    -14.56397342	      1.06409475	      9.15162728	     -3.56096412	    -12.16586118	     17.03960905	     17.03960905	     14.00527896	     -7.28190475	     -2.59007480	    -10.28536642	      7.05813083	      1.50676805	      0.63277001	    -12.13155168	    -16.49253433	     31.46287411	     45.13254848	      0.00000000	      0.00000000	     22.89140941	    -14.79471912	      2.38998893	     43.22993980	     44.68537501	      0.00000000	      0.00000000
     26.85900000	     -3.89182012	     -3.96386928	     -0.64157109	      1.09041018	      0.93561901	      0.43042429	     34.37236676	     -6.71814087	     -6.63029252	     56.38604001	     56.38604001	     -0.24779745	    -14.15848254	      1.23451016	      8.27866958	     -3.51826221	    -12.48618388	     16.34205122	     16.34205122	     14.02306784	     -6.76500230	     -3.51496160	    -10.35173571	      7.10909192	      1.03185263	      0.54665422	    -11.80544552	    -18.43786021	     26.18324127	     45.60661808	      0.00000000	      0.00000000	     24.18749925	    -15.73066786	      2.45556584	     45.50718463	     44.85515628	      0.00000000	      0.00000000
     26.87050000	     -3.94681175	     -3.90433579	     -0.74576769	      1.08932111	      0.93536039	      0.43034888	     34.67263484	     -6.57681027	     -6.96461854	     52.95553643	     52.95553643	     -0.44935132	    -13.64048684	      0.85156669	      7.32031428	     -3.35399782	    -12.69245410	     15.49761918	     15.49761918	     14.07597012	     -6.43528021	     -4.04048006	    -10.47679284	      7.11828412	      0.90914024	     -0.45883932	    -11.52506617	    -21.67420078	     23.33380747	     46.19020524	      0.00000000	      0.00000000	     25.59366964	    -16.30653639	      1.98460640	     47.69767294	     45.19286166	      0.00000000	      0.00000000
     26.88200000	     -4.02882985	     -3.89036297	     -0.83574795	      1.08831055	      0.93489101	      0.43035294	     34.82681869	     -6.37311252	     -7.40644753	     49.19418141	     49.19418141	     -0.40156941	    -12.74763937	      1.20494002	      6.47475974	     -3.26264401	    -12.86618629	     14.84174455	     14.84174455	     14.37779969	     -6.04828075	     -4.14781255	    -10.55549545	      7.19934629	      0.98410034	     -2.32915665	    -11.58941691	    -21.85635198	     22.28361188	     46.25381553	      0.00000000	      0.00000000	     27.34892636	    -16.61310821	      1.71856453	     48.94714890	     45.26467974	      0.00000000	      0.00000000
     26.89350000	     -4.16582948	     -3.82472424	     -0.95799649	      1.08742944	      0.93417488	      0.43053821	     34.85469149	     -6.17688778	     -7.91959435	     45.08748662	     45.08748662	     -0.39225627	    -11.63187585	      1.47712162	      5.65883647	     -3.12790508	    -13.13081166	     14.15541950	     14.15541950	     14.65087401	     -5.59106101	     -4.35625586	    -10.54950722	      7.17998903	      1.10720479	     -4.16061418	    -11.62910874	    -22.06635538	     21.19527691	     46.32417978	      0.00000000	      0.00000000	     28.99250655	    -16.93233269	      1.44216680	     50.41549514	     45.33605282	      0.00000000	      0.00000000
     26.90500000	     -4.23382913	     -3.65101283	     -1.13863831	      1.08675253	      0.93332411	      0.43088345	     34.63843066	     -6.02343397	     -8.45526097	     40.69179339	     40.69179339	     -0.46925819	    -10.19935483	      1.39607090	      4.69061304	     -2.87852921	    -13.56946773	     13.36603231	     13.36603231	     14.87593692	     -4.97551865	     -4.79028210	    -10.65561579	      7.00505156	      1.45384198	     -5.96663712	    -11.62892167	    -22.47530182	     19.94660531	     46.43934854	      0.00000000	      0.00000000	     30.49470816	    -17.15563426	      1.12448839	     52.57681889	     45.42904173	      0.00000000	      0.00000000
     26.91650000	     -4.39538902	     -3.51951899	     -1.29382328	      1.08621626	      0.93219008	      0.43135438	     34.27992978	     -5.77730611	     -9.17975134	     35.96310110	     35.96310110	     -0.67288333	     -8.55378462	      1.32560028	      3.85018449	     -2.68065093	    -13.94029496	     12.63157579	     12.63157579	     15.06950915	     -4.44285982	     -5.30316975	    -10.61889465	      6.88136012	      1.51120998	     -7.60801797	    -11.59523237	    -22.99858666	     18.99826498	     46.56291243	      0.00000000	      0.00000000	     31.66038375	    -17.55156270	      0.76258106	     54.77426680	     45.52754968	      0.00000000	      0.00000000
     26.92800000	     -4.45813081	     -3.36571031	     -1.46544420	      1.08606802	      0.93092165	      0.43193777	     33.61967205	     -5.48368914	    -10.02691015	     31.08794397	     31.08794397	     -0.82102960	     -6.57661853	      1.42851283	      2.85699376	     -2.45103726	    -14.26544737	     11.87974357	     11.87974357	     15.35617479	     -3.91082138	     -5.91107427	    -10.59154037	      6.72053966	      1.59464623	     -9.29154049	    -11.60964679	    -23.62268441	     18.28266305	     46.69495757	      0.00000000	      0.00000000	     32.64340993	    -17.91922141	      0.33888747	     57.21353384	     45.63786213	      0.00000000	      0.00000000
